<svg id="Слой_1" data-name="Слой 1" xmlns="http://www.w3.org/2000/svg" viewBox="0 0 552 234"><defs><style>.cls-1{fill:#262523;}.cls-2{fill:#c52a85;}.cls-3{fill:#949494;}</style></defs><title>лого</title><path class="cls-1" d="M15.21,27.62h15L72.5,130.13,115,27.62h14.45L78.28,147.47H66.38Z"/><path class="cls-1" d="M160.9,27.62h13.43v119H160.9Z"/><path class="cls-2" d="M216,27.62h86V39.86H229.41V80.49h49.94V92.73H229.41v41.65h73.43v12.24H216Z"/><path class="cls-2" d="M373.4,85.93l-44-58.31h15.81l36.55,48.62,36.21-48.62h15.64l-44,58.14,45.73,60.86h-16L381.22,95.45l-38.08,51.17H327.67Z"/><path class="cls-3" d="M460,41.94a7.61,7.61,0,0,1-1.32,4.71,4.18,4.18,0,0,1-3.52,1.74,4.57,4.57,0,0,1-4-2l-.06,1.73h-1.31v-18h1.39v7.16a4.41,4.41,0,0,1,4-2.07A4.22,4.22,0,0,1,458.72,37,7.71,7.71,0,0,1,460,41.73Zm-1.41-.24a6.6,6.6,0,0,0-1-3.88,3.16,3.16,0,0,0-2.74-1.36,3.89,3.89,0,0,0-2.29.66,4.06,4.06,0,0,0-1.42,1.94v5.72a3.77,3.77,0,0,0,3.73,2.39,3.14,3.14,0,0,0,2.71-1.37A7.09,7.09,0,0,0,458.62,41.7Z"/><path class="cls-3" d="M468,46.14l3.7-10.67h1.52l-5.42,14.84-.28.66a3.4,3.4,0,0,1-3.22,2.3,3.87,3.87,0,0,1-1.08-.16V52l.73.07a2.62,2.62,0,0,0,1.67-.51,3.93,3.93,0,0,0,1.08-1.75l.62-1.71L462.5,35.47H464Z"/><path class="cls-3" d="M485.2,48.15h-1.45V31.09h1.45Z"/><path class="cls-3" d="M502.87,42.83A6.16,6.16,0,0,1,500.94,47a6.39,6.39,0,0,1-4.35,1.43,6,6,0,0,1-3.36-1A6.19,6.19,0,0,1,491,44.75a9.65,9.65,0,0,1-.81-4V38.56a9.74,9.74,0,0,1,.8-4,6.17,6.17,0,0,1,11.91,1.9h-1.46c-.36-2.9-1.93-4.34-4.72-4.34a4.47,4.47,0,0,0-3.7,1.73,7.59,7.59,0,0,0-1.37,4.8V40.7A7.53,7.53,0,0,0,493,45.41a4.32,4.32,0,0,0,3.63,1.76A4.79,4.79,0,0,0,500,46.08a5.2,5.2,0,0,0,1.41-3.25Z"/><path class="cls-3" d="M507.33,48.15V31.09h5a6.59,6.59,0,0,1,4.16,1.13A4,4,0,0,1,518,35.56a3.77,3.77,0,0,1-.72,2.3,3.88,3.88,0,0,1-2,1.4,4.15,4.15,0,0,1,3.31,4.09,4.43,4.43,0,0,1-1.46,3.53A6,6,0,0,1,513,48.15Zm1.44-9.41h3.94a4.36,4.36,0,0,0,2.79-.85,2.87,2.87,0,0,0,1-2.38,2.86,2.86,0,0,0-1-2.42,5.09,5.09,0,0,0-3.1-.78h-3.6Zm0,1.22v7h4.33A4.3,4.3,0,0,0,516,46a3.28,3.28,0,0,0,1.09-2.61,3.18,3.18,0,0,0-1-2.5,4.19,4.19,0,0,0-2.87-.92Z"/><path class="cls-3" d="M532.21,43.36h-7.75l-1.75,4.79h-1.52l6.46-17.06H529l6.46,17.06H534Zm-7.3-1.22h6.84l-3.42-9.29Z"/><path class="cls-3" d="M69.46,193.46l.14.54.16-.54,8-22.43h2.37l-9.52,25.59H68.58L59.05,171h2.36Z"/><path class="cls-3" d="M88.74,196.62H86.58V171h2.16Z"/><path class="cls-3" d="M107.41,186H100v10.67H97.79V171h8.32a9.47,9.47,0,0,1,6.39,2,7.57,7.57,0,0,1,.87,9.89,7.42,7.42,0,0,1-3.87,2.6l6.4,10.89v.23h-2.31ZM100,184.12h6.63a6.1,6.1,0,0,0,4.37-1.55,5.22,5.22,0,0,0,1.66-4,5.28,5.28,0,0,0-1.73-4.21,7.16,7.16,0,0,0-4.83-1.49H100Z"/><path class="cls-3" d="M138.82,172.86H130v23.76h-2.16V172.86h-8.75V171h19.69Z"/><path class="cls-3" d="M162.74,171V188.5a8.84,8.84,0,0,1-1.14,4.5,7.5,7.5,0,0,1-3.18,2.95,10.38,10.38,0,0,1-4.7,1,9.31,9.31,0,0,1-6.48-2.2,8.11,8.11,0,0,1-2.52-6.11V171h2.15v17.31a6.65,6.65,0,0,0,1.84,5,6.9,6.9,0,0,0,5,1.79,6.83,6.83,0,0,0,5-1.8,6.63,6.63,0,0,0,1.84-5V171Z"/><path class="cls-3" d="M184.36,189.43H172.74l-2.64,7.19h-2.27L177.52,171h2.06l9.68,25.59H187Zm-11-1.83h10.26l-5.13-13.93Z"/><path class="cls-3" d="M197.36,194.79H210v1.83H195.18V171h2.18Z"/><path class="cls-3" d="M241.36,184.35h-12v10.44h13.76v1.83H227.22V171h15.84v1.83H229.39v9.66h12Z"/><path class="cls-3" d="M257.65,181.86,264.86,171h2.58L259,183.65l8.73,13h-2.6l-7.45-11.18-7.49,11.18h-2.57l8.76-13L247.86,171h2.58Z"/><path class="cls-3" d="M293,196.62h-2.18V184.35H276.21v12.27h-2.16V171h2.16v11.49h14.62V171H293Z"/><path class="cls-3" d="M304.32,196.62h-2.17V171h2.17Z"/><path class="cls-3" d="M313.42,196.62V171H321c2.74,0,4.82.56,6.24,1.7a6,6,0,0,1,2.12,5,5.7,5.7,0,0,1-1.08,3.46,5.85,5.85,0,0,1-3,2.1,6.18,6.18,0,0,1,5,6.13,6.66,6.66,0,0,1-2.19,5.3,9,9,0,0,1-6.09,1.9Zm2.16-14.11h5.91a6.64,6.64,0,0,0,4.19-1.28,4.36,4.36,0,0,0,1.49-3.57,4.28,4.28,0,0,0-1.54-3.63,7.66,7.66,0,0,0-4.65-1.17h-5.4Zm0,1.82v10.46h6.49a6.48,6.48,0,0,0,4.4-1.41,4.93,4.93,0,0,0,1.63-3.92,4.75,4.75,0,0,0-1.56-3.75,6.26,6.26,0,0,0-4.3-1.38Z"/><path class="cls-3" d="M340.28,196.62h-2.17V171h2.17Z"/><path class="cls-3" d="M366.24,172.86h-8.77v23.76H355.3V172.86h-8.75V171h19.69Z"/><path class="cls-3" d="M375.16,196.62H373V171h2.16Z"/><path class="cls-3" d="M403.18,185.21a14.86,14.86,0,0,1-1.22,6.21,9.3,9.3,0,0,1-3.49,4.11,9.56,9.56,0,0,1-5.24,1.44,9.11,9.11,0,0,1-7.24-3.2q-2.76-3.21-2.76-8.66v-2.64a14.59,14.59,0,0,1,1.24-6.19,9.21,9.21,0,0,1,8.73-5.6,9.56,9.56,0,0,1,5.21,1.42,9.31,9.31,0,0,1,3.49,4,14.38,14.38,0,0,1,1.28,6ZM401,182.44a11.35,11.35,0,0,0-2.09-7.25,7.54,7.54,0,0,0-11.42,0c-1.41,1.76-2.12,4.2-2.12,7.34v2.67a11.36,11.36,0,0,0,2.11,7.22,6.91,6.91,0,0,0,5.73,2.66,6.84,6.84,0,0,0,5.73-2.63q2.06-2.62,2.06-7.32Z"/><path class="cls-3" d="M429.85,196.62h-2.17L413,174.72v21.9h-2.18V171H413L427.7,193V171h2.15Z"/></svg>